<svg width="48" height="48" viewBox="0 0 48 48" fill="none" xmlns="http://www.w3.org/2000/svg">
<path fill-rule="evenodd" clip-rule="evenodd" d="M5.88753 16.0856V18.0285C4.31167 18.4402 2.51292 19.6153 2.48811 20.5965C2.48085 20.8851 2.7248 21.1174 3.01925 21.1174H10.8552C11.1496 21.1174 11.3936 20.8851 11.3863 20.5965C11.3615 19.6153 9.56275 18.4402 7.98703 18.0285V16.0856H5.88753ZM3.15676 22.392C2.66146 22.392 2.26326 22.7887 2.26326 23.2745C2.26326 23.7603 2.66146 24.1509 3.15676 24.1509C3.65205 24.1509 4.05654 23.7603 4.05654 23.2745C4.05654 22.7887 3.65205 22.392 3.15676 22.392ZM5.67493 22.392C5.17963 22.392 4.78143 22.7887 4.78143 23.2745C4.78143 23.7603 5.17963 24.1509 5.67493 24.1509C6.17022 24.1509 6.57471 23.7603 6.57471 23.2745C6.57471 22.7887 6.17022 22.392 5.67493 22.392ZM8.19938 22.392C7.70409 22.392 7.2996 22.7887 7.2996 23.2745C7.2996 23.7603 7.70409 24.1509 8.19938 24.1509C8.69467 24.1509 9.09288 23.7603 9.09288 23.2745C9.09288 22.7887 8.69467 22.392 8.19938 22.392ZM10.7176 22.392C10.2223 22.392 9.81777 22.7887 9.81777 23.2745C9.81777 23.7603 10.2223 24.1509 10.7176 24.1509C11.2128 24.1509 11.611 23.7603 11.611 23.2745C11.611 22.7887 11.2128 22.392 10.7176 22.392ZM2.71917 25.34C2.22387 25.34 1.81938 25.7305 1.81938 26.2163C1.81938 26.7021 2.22387 27.0988 2.71917 27.0988C3.21446 27.0988 3.61266 26.7021 3.61266 26.2163C3.61266 25.7305 3.21446 25.34 2.71917 25.34ZM11.155 25.34C10.6597 25.34 10.2615 25.7305 10.2615 26.2163C10.2615 26.7021 10.6597 27.0988 11.155 27.0988C11.6503 27.0988 12.0547 26.7021 12.0547 26.2163C12.0547 25.7305 11.6503 25.34 11.155 25.34ZM5.5311 25.5851C5.03581 25.5851 4.63132 25.9819 4.63132 26.4676C4.63132 26.9534 5.03581 27.344 5.5311 27.344C6.02639 27.344 6.4246 26.9534 6.4246 26.4676C6.4246 25.9819 6.02639 25.5851 5.5311 25.5851ZM8.34303 25.5851C7.84774 25.5851 7.44953 25.9819 7.44953 26.4676C7.44953 26.9534 7.84774 27.344 8.34303 27.344C8.83832 27.344 9.24281 26.9534 9.24281 26.4676C9.24281 25.9819 8.83832 25.5851 8.34303 25.5851ZM2.27568 28.288C1.78039 28.288 1.38219 28.6785 1.38219 29.1643C1.38219 29.6501 1.78039 30.0468 2.27568 30.0468C2.77098 30.0468 3.17547 29.6501 3.17547 29.1643C3.17547 28.6785 2.77098 28.288 2.27568 28.288ZM11.5988 28.288C11.1035 28.288 10.699 28.6785 10.699 29.1643C10.699 29.6501 11.1035 30.0468 11.5988 30.0468C12.0941 30.0468 12.4923 29.6501 12.4923 29.1643C12.4923 28.6785 12.0941 28.288 11.5988 28.288ZM5.38149 28.7844C4.88619 28.7844 4.48799 29.175 4.48799 29.6608C4.48799 30.1466 4.88619 30.5433 5.38149 30.5433C5.87678 30.5433 6.28127 30.1466 6.28127 29.6608C6.28127 29.175 5.87678 28.7844 5.38149 28.7844ZM8.49329 28.7844C7.99799 28.7844 7.5935 29.175 7.5935 29.6608C7.5935 30.1466 7.99799 30.5433 8.49329 30.5433C8.98858 30.5433 9.38678 30.1466 9.38678 29.6608C9.38692 29.175 8.98872 28.7844 8.49329 28.7844ZM1.8382 31.2298C1.34291 31.2298 0.944702 31.6265 0.944702 32.1123C0.944702 32.5981 1.34291 32.9886 1.8382 32.9886C2.33349 32.9886 2.73798 32.5981 2.73798 32.1123C2.73798 31.6265 2.33349 31.2298 1.8382 31.2298ZM12.0361 31.2298C11.5408 31.2298 11.1364 31.6265 11.1364 32.1123C11.1364 32.5981 11.5408 32.9886 12.0361 32.9886C12.5314 32.9886 12.9296 32.5981 12.9296 32.1123C12.9296 31.6265 12.5314 31.2298 12.0361 31.2298ZM5.23751 31.9776C4.74222 31.9776 4.33773 32.3681 4.33773 32.8539C4.33773 33.3397 4.74222 33.7364 5.23751 33.7364C5.73281 33.7364 6.1373 33.3397 6.1373 32.8539C6.1373 32.3681 5.73281 31.9776 5.23751 31.9776ZM8.63679 31.9776C8.1415 31.9776 7.73701 32.3681 7.73701 32.8539C7.73701 33.3397 8.1415 33.7364 8.63679 33.7364C9.13209 33.7364 9.53029 33.3397 9.53029 32.8539C9.53029 32.3681 9.13209 31.9776 8.63679 31.9776Z" fill="#166534"/>
<path fill-rule="evenodd" clip-rule="evenodd" d="M26.4049 15.212C28.9936 17.9698 33.923 23.2521 34.6439 24.0225C34.936 24.2924 34.731 24.7607 34.3068 24.7607H14.5937C14.1048 24.7535 13.9207 24.4094 14.2344 24.0461C17.0057 21.0853 19.8389 18.1718 22.5478 15.1636C23.9053 13.656 24.9708 13.6845 26.4046 15.2122L26.4049 15.212ZM29.9126 27.0195H32.9708V29.8143H29.9126V27.0195ZM25.3609 27.0195H28.419V29.8143H25.3609V27.0195ZM20.8096 27.0195H23.8675V29.8143H20.8096V27.0195ZM29.9122 31.1041H32.9703V35.9051H29.9122V31.1041ZM25.3604 31.1041H28.4186V33.8988H25.3604V31.1041ZM20.8091 31.1041H23.8671V33.8988H20.8091V31.1041ZM16.2578 31.1041H19.3158V33.8988H16.2578V31.1041ZM16.2578 27.0195H19.3158V29.8143H16.2578V27.0195ZM15.0478 36.4072H34.1796V25.3718H15.0478V36.4072Z" fill="#166534"/>
<path d="M23.1953 9.44886L24.4301 11.2374L25.6648 9.42993C25.3017 9.2416 24.884 9.12866 24.4301 9.12866C23.9761 9.12879 23.5766 9.24176 23.1953 9.44886Z" fill="#166534"/>
<path d="M27.2812 7.05781C26.4458 6.53064 25.4653 6.22937 24.4301 6.22937C23.395 6.2295 22.4145 6.53064 21.5791 7.05781L22.7413 8.77115C23.2497 8.48879 23.8126 8.31926 24.43 8.31926C25.0474 8.31926 25.6285 8.48868 26.1187 8.77115L27.2812 7.05781Z" fill="#166534"/>
<path d="M28.8609 4.76089C27.5898 3.91369 26.0644 3.42407 24.4301 3.42407C22.7958 3.42407 21.2886 3.91355 19.9993 4.76089L21.1614 6.4553C22.1057 5.85275 23.2316 5.49513 24.4301 5.49513C25.6286 5.49513 26.7363 5.85289 27.6987 6.4553L28.8609 4.76089Z" fill="#166534"/>
<path d="M24.4301 0.599976C22.2147 0.599976 20.1627 1.27777 18.4376 2.46393L19.5998 4.15834C20.9981 3.21697 22.6504 2.6898 24.4301 2.6898C26.2096 2.6898 27.8621 3.23573 29.2604 4.15834L30.4226 2.46393C28.6975 1.27777 26.6455 0.599976 24.4301 0.599976Z" fill="#166534"/>
<path d="M48.9446 32.1799V21.645H36.9597V32.1799C36.9597 32.429 37.1602 32.6374 37.4298 32.7H48.4742C48.744 32.6374 48.9444 32.4291 48.9444 32.1799H48.9446ZM39.2958 24.7339C39.2958 25.011 39.0311 25.2361 38.7055 25.2361C38.3799 25.2361 38.1152 25.011 38.1152 24.7339V23.3894C38.1152 23.1124 38.3799 22.8869 38.7055 22.8869C39.0311 22.8869 39.2958 23.1124 39.2958 23.3894V24.7339Z" fill="#166534"/>
<path d="M38.7057 23.2444C38.6116 23.2444 38.5355 23.3095 38.5355 23.3895V24.734C38.5355 24.8141 38.612 24.8788 38.7057 24.8788C38.7993 24.8788 38.8758 24.8137 38.8758 24.734V23.3895C38.8758 23.3095 38.7994 23.2444 38.7057 23.2444Z" fill="#166534"/>
<path d="M38.7057 19.8238C38.7997 19.8238 38.8758 19.7587 38.8758 19.6787V18.3339C38.8758 18.2542 38.7993 18.1891 38.7057 18.1891C38.612 18.1891 38.5355 18.2542 38.5355 18.3339V19.6787C38.5351 19.7587 38.6116 19.8238 38.7057 19.8238Z" fill="#166534"/>
<path d="M38.1147 33.0576V33.478C38.1147 33.7761 38.4001 34.0189 38.7504 34.0189H39.921C40.2714 34.0189 40.5567 33.7761 40.5567 33.478V33.0576H38.1147Z" fill="#166534"/>
<path d="M48.9447 21.2876V16.9089C48.9447 16.6108 48.6593 16.368 48.3085 16.368H37.5954C37.245 16.368 36.9597 16.6108 36.9597 16.9089V21.2876H48.9447ZM38.1149 18.3341C38.1149 18.0575 38.3795 17.8319 38.7051 17.8319C39.0307 17.8319 39.2954 18.0571 39.2954 18.3341V19.6789C39.2954 19.9559 39.0307 20.1815 38.7051 20.1815C38.3795 20.1815 38.1149 19.9559 38.1149 19.6789V18.3341Z" fill="#166534"/>
<path d="M45.3478 33.0576V33.478C45.3478 33.7761 45.6331 34.0189 45.9839 34.0189H47.154C47.5044 34.0189 47.7893 33.7761 47.7893 33.478V33.0576H45.3478Z" fill="#166534"/>
<path d="M31.6172 40.7643C31.0744 40.7643 30.6336 41.2476 30.6336 41.8415V44.5863C30.6336 44.8285 30.4466 45.0327 30.2254 45.0327H18.6347C18.4138 45.0327 18.2268 44.8285 18.2268 44.5863V41.8415C18.2268 41.2475 17.7856 40.7643 17.2429 40.7643C16.7002 40.7643 16.2585 41.2475 16.2585 41.8411V44.5859C16.2585 46.0094 17.3096 47.1691 18.6072 47.185V48.2236C18.6072 48.4316 18.7614 48.6 18.9514 48.6C19.1415 48.6 19.2954 48.4315 19.2954 48.2236V47.1865H29.5646V48.2236C29.5646 48.4316 29.7188 48.6 29.9092 48.6C30.0989 48.6 30.2531 48.4315 30.2531 48.2236V47.185C31.5502 47.1691 32.6016 46.0097 32.6016 44.5863V41.8415C32.6016 41.2475 32.16 40.7643 31.6174 40.7643H31.6172Z" fill="#166534"/>
<path d="M18.915 41.8409V44.2795H29.9453V41.8409C29.9453 40.8318 30.6955 40.0109 31.6171 40.0109C31.6291 40.0109 31.6403 40.0143 31.6526 40.0147V39.8492C31.6526 39.2299 31.0694 38.7257 30.3527 38.7257L18.5081 38.7258C17.7911 38.7258 17.2075 39.2673 17.2075 39.9332V40.0148C17.2198 40.0148 17.2307 40.011 17.243 40.011C18.1649 40.011 18.915 40.8318 18.915 41.8409L18.915 41.8409ZM28.1821 40.5759H28.4786C28.6689 40.5759 28.8232 40.7443 28.8232 40.9526C28.8232 41.1606 28.669 41.3291 28.4786 41.3291H28.1821C27.9917 41.3291 27.8374 41.1606 27.8374 40.9526C27.8375 40.7443 27.9918 40.5759 28.1821 40.5759ZM28.1821 42.8874H28.4786C28.6689 42.8874 28.8232 43.0558 28.8232 43.2641C28.8232 43.4721 28.669 43.6409 28.4786 43.6409L28.1821 43.6408C27.9917 43.6408 27.8374 43.472 27.8374 43.264C27.8375 43.0558 27.9918 42.8874 28.1821 42.8874ZM24.2816 40.5759H24.5785C24.7689 40.5759 24.9228 40.7443 24.9228 40.9526C24.9228 41.1606 24.7685 41.3291 24.5785 41.3291H24.2816C24.0916 41.3291 23.9374 41.1606 23.9374 40.9526C23.9374 40.7443 24.0916 40.5759 24.2816 40.5759ZM24.2816 42.8874H24.5785C24.7689 42.8874 24.9228 43.0558 24.9228 43.2641C24.9228 43.4721 24.7685 43.6409 24.5785 43.6409H24.2816C24.0916 43.6409 23.9374 43.4721 23.9374 43.2641C23.9374 43.0558 24.0916 42.8874 24.2816 42.8874ZM20.3815 40.5759H20.6787C20.8688 40.5759 21.023 40.7443 21.023 40.9526C21.023 41.1606 20.8688 41.3291 20.6787 41.3291H20.3815C20.1915 41.3291 20.0376 41.1606 20.0376 40.9526C20.0376 40.7443 20.1915 40.5759 20.3815 40.5759ZM20.3815 42.8874H20.6787C20.8688 42.8874 21.023 43.0558 21.023 43.2641C21.023 43.4721 20.8688 43.6409 20.6787 43.6409H20.3815C20.1915 43.6409 20.0376 43.4721 20.0376 43.2641C20.0376 43.0558 20.1915 42.8874 20.3815 42.8874Z" fill="#166534"/>
</svg>
