<svg width="48" height="48" viewBox="0 0 48 48" fill="none" xmlns="http://www.w3.org/2000/svg">
<path d="M3.70764 20.4165C3.70764 19.8808 3.7288 19.3517 3.76817 18.8289L0.437407 18.0737C0.149732 19.7797 0 21.5832 0 23.4768C0 24.0021 0.0171427 24.5237 0.0471425 25.0421H4.31143C3.91393 23.5491 3.70764 21.9976 3.70764 20.4165Z" fill="#166534"/>
<path d="M17.2844 3.53468L16.6129 0.45697C14.623 0.849352 12.7788 1.48937 11.0991 2.35784L12.3302 5.19298C13.831 4.42302 15.4903 3.86708 17.2844 3.53468Z" fill="#166534"/>
<path d="M5.77356 11.6617L3.77191 9.09161C2.49985 11.0871 1.52703 13.3731 0.888428 15.9137L4.05634 16.632C4.39384 14.8484 4.97162 13.1757 5.77356 11.6617Z" fill="#166534"/>
<path d="M8.41943 8.04289C9.14449 7.31083 9.9406 6.65924 10.8009 6.08787L9.56579 3.24414C7.79042 4.383 6.23098 5.8038 4.91504 7.47799L6.8318 9.93915C7.30993 9.26268 7.8398 8.6284 8.41943 8.04289Z" fill="#166534"/>
<path d="M21.4369 5.39691C16.4422 5.39691 12.2841 6.92925 9.41231 9.82861C6.76348 12.503 5.3634 16.1641 5.3634 20.416C5.3634 24.4773 7.00293 28.3589 9.98015 31.3453C13.0516 34.4263 17.1204 36.1232 21.437 36.1232C27.5564 36.1232 33.1455 32.6283 35.854 27.2692C35.4196 27.2357 35.0746 26.7512 35.0746 26.1571C35.0746 20.7706 35.2581 16.321 35.6309 12.7234C33.0049 7.99539 27.9825 5.39673 21.4367 5.39673L21.4369 5.39691ZM25.9795 25.1745C25.3856 25.5008 24.8379 25.6369 24.3397 25.6369C23.2348 25.6369 22.3741 24.9673 21.7983 24.2161C20.9824 25.1362 20.1505 25.5409 19.3158 25.4203C18.5248 25.3062 17.9286 24.7463 17.53 24.215C16.7449 24.9301 15.9373 25.2112 15.1191 25.0506C14.2177 24.8741 13.5061 24.1767 13.0194 23.5226C12.1772 24.7363 10.8077 25.7567 9.1274 24.6597C8.71597 24.3912 8.54428 23.7241 8.74356 23.1696C8.94312 22.6155 9.43784 22.3842 9.84927 22.6524C11.2469 23.5653 12.1561 21.4185 12.2551 21.1709C12.3971 20.8161 12.6711 20.5898 12.9701 20.5825C13.2703 20.5771 13.5489 20.784 13.7 21.1319C13.887 21.5532 14.5542 22.6917 15.3631 22.8451C15.8994 22.9458 16.4806 22.6069 17.0919 21.8351C17.277 21.6015 17.5314 21.495 17.7818 21.5463C18.0325 21.5976 18.2519 21.8008 18.3773 22.0982C18.3786 22.1011 18.8391 23.1159 19.499 23.2039C20.136 23.2906 20.8075 22.4961 21.2591 21.8157C21.438 21.546 21.7032 21.4103 21.9697 21.4511C22.2365 21.4922 22.4719 21.7048 22.6013 22.0221C22.6013 22.0221 22.8477 22.591 23.3168 22.9968C23.9031 23.504 24.5696 23.5408 25.3546 23.1098C25.7778 22.8769 26.2608 23.1509 26.4335 23.7213C26.6058 24.2913 26.4025 24.9417 25.9795 25.1746L25.9795 25.1745ZM33.9124 15.3938C32.4639 15.7606 31.4267 15.048 30.8134 14.3889C30.2806 14.948 29.4712 15.5652 28.5532 15.4656C28.1469 15.4216 27.6176 15.2194 27.0953 14.6011C26.416 15.5364 25.5063 16.2684 24.4957 16.1959C23.99 16.1594 23.3397 15.9075 22.7217 15.0653C22.3907 15.6566 21.9316 16.2519 21.3214 16.5908C21.0546 16.7392 20.7058 16.8641 20.2893 16.8641C19.8645 16.8641 19.3687 16.7342 18.8166 16.3667C18.4068 16.0941 18.2386 15.4252 18.4411 14.873C18.6433 14.3207 19.1399 14.094 19.5495 14.3669C19.9863 14.6575 20.3581 14.7112 20.686 14.5315C21.3224 14.1821 21.7459 13.0186 21.8552 12.5999C21.9655 12.1779 22.2527 11.883 22.584 11.8549C22.9159 11.8267 23.2277 12.0657 23.3766 12.4653C23.6238 13.1295 24.0342 13.9291 24.5838 13.9688C25.1391 14.0078 25.8813 13.2981 26.3859 12.2408C26.5397 11.9185 26.8062 11.721 27.0899 11.729C27.3741 11.7326 27.6374 11.9325 27.7863 12.2589C28.0686 12.8758 28.3702 13.2068 28.683 13.2422C29.2841 13.3126 30.0065 12.426 30.2125 12.1109C30.381 11.8528 30.6298 11.7113 30.8843 11.7326C31.139 11.7532 31.3734 11.929 31.518 12.2123C31.5422 12.2571 32.2511 13.5447 33.6068 13.2018C34.056 13.0881 34.4885 13.4866 34.5729 14.0919C34.6576 14.6973 34.3616 15.2802 33.9124 15.394L33.9124 15.3938Z" fill="#166534"/>
<path d="M36.5858 6.82C36.6436 6.58393 36.7039 6.35507 36.7655 6.13054C35.7222 5.02449 34.5651 4.06287 33.3051 3.24957L32.0764 6.07889C33.6013 7.09142 34.9173 8.35697 35.9938 9.86196C36.1663 8.74223 36.3634 7.72969 36.5858 6.82Z" fill="#166534"/>
<path d="M31.7742 2.35976C30.0862 1.48259 28.2407 0.84544 26.2615 0.455933L25.5902 3.5329C27.3918 3.86428 29.0515 4.41838 30.5477 5.18436L31.7742 2.35976Z" fill="#166534"/>
<path d="M21.4368 3.1661C22.2872 3.1661 23.1138 3.20978 23.9169 3.2928L24.5938 0.190235C23.5722 0.0646131 22.5195 0 21.4368 0C20.3515 0 19.299 0.0653366 18.2802 0.190956L18.9568 3.29279C19.7609 3.20868 20.588 3.1661 21.4368 3.1661Z" fill="#166534"/>
<path d="M26.8494 37.4783L29.1974 46.272C32.3018 44.8436 35.0738 42.5955 37.2977 39.777L32.7985 34.1295C31.0486 35.6157 29.0279 36.7585 26.8494 37.4783H26.8494Z" fill="#166534"/>
<path d="M39.7488 16.4207L41.9616 15.9189C41.5847 14.4404 41.0929 13.0347 40.4915 11.719C40.1741 12.8853 39.9269 14.4512 39.7488 16.4207Z" fill="#166534"/>
<path d="M5.06595 27.2725H0.270508C0.844255 31.2952 2.3094 35.0263 4.41823 38.1824L8.68814 32.823C7.12678 31.182 5.90725 29.3028 5.06595 27.2723V27.2725Z" fill="#166534"/>
<path d="M42.3662 1.97888C38.5557 1.97888 36.809 9.10387 36.7324 25.0416H37.7506C37.7819 19.1971 38.0664 15.1149 38.6382 12.2539C39.3472 8.70697 40.6016 6.90821 42.3662 6.90821C44.1308 6.90821 45.3852 8.7066 46.0942 12.2539C46.6661 15.115 46.9505 19.1973 46.9819 25.0416H48C47.9234 9.10461 46.1767 1.97888 42.3662 1.97888Z" fill="#166534"/>
<path d="M39.582 18.7207C39.4781 20.5588 39.4192 22.664 39.4055 25.0417H42.8258C42.856 24.5234 42.8729 24.0021 42.8729 23.4765C42.8729 21.6146 42.7202 19.8057 42.4213 18.0766L39.582 18.7207Z" fill="#166534"/>
<path d="M10.0722 34.1339L5.57654 39.777C7.80029 42.5958 10.5723 44.844 13.6768 46.272L16.0216 37.4902C13.8627 36.7823 11.8462 35.6492 10.0722 34.1339Z" fill="#166534"/>
<path d="M21.4371 38.3533C20.1535 38.3533 18.8893 38.2125 17.6606 37.9396L15.2633 46.9178C17.2272 47.6195 19.3015 48 21.4368 48C23.5725 48 25.6465 47.6195 27.6106 46.9178L25.2114 37.932C23.9857 38.2082 22.7215 38.3533 21.4371 38.3533Z" fill="#166534"/>
<path d="M34.1837 32.8208L38.4555 38.1827C40.5643 35.0263 42.0297 31.2953 42.6032 27.2728H37.7976C36.9301 29.3654 35.6928 31.2373 34.1837 32.821V32.8208Z" fill="#166534"/>
</svg>
